<svg width="200" height="200" viewBox="0 0 200 200" xmlns="http://www.w3.org/2000/svg">
  <rect width="200" height="200" fill="white"/>
  <g fill="#0A1D37">
    <!-- QR Code pattern - simplified representation -->
    <rect x="20" y="20" width="20" height="20"/>
    <rect x="40" y="20" width="20" height="20"/>
    <rect x="60" y="20" width="20" height="20"/>
    <rect x="20" y="40" width="20" height="20"/>
    <rect x="60" y="40" width="20" height="20"/>
    <rect x="20" y="60" width="20" height="20"/>
    <rect x="40" y="60" width="20" height="20"/>
    <rect x="60" y="60" width="20" height="20"/>
    
    <rect x="120" y="20" width="20" height="20"/>
    <rect x="140" y="20" width="20" height="20"/>
    <rect x="160" y="20" width="20" height="20"/>
    <rect x="120" y="40" width="20" height="20"/>
    <rect x="160" y="40" width="20" height="20"/>
    <rect x="120" y="60" width="20" height="20"/>
    <rect x="140" y="60" width="20" height="20"/>
    <rect x="160" y="60" width="20" height="20"/>
    
    <rect x="20" y="120" width="20" height="20"/>
    <rect x="40" y="120" width="20" height="20"/>
    <rect x="60" y="120" width="20" height="20"/>
    <rect x="20" y="140" width="20" height="20"/>
    <rect x="60" y="140" width="20" height="20"/>
    <rect x="20" y="160" width="20" height="20"/>
    <rect x="40" y="160" width="20" height="20"/>
    <rect x="60" y="160" width="20" height="20"/>
    
    <rect x="100" y="100" width="20" height="20"/>
    <rect x="120" y="100" width="20" height="20"/>
    <rect x="140" y="100" width="20" height="20"/>
    <rect x="100" y="120" width="20" height="20"/>
    <rect x="140" y="120" width="20" height="20"/>
    <rect x="100" y="140" width="20" height="20"/>
    <rect x="120" y="140" width="20" height="20"/>
    <rect x="140" y="140" width="20" height="20"/>
    
    <!-- Center logo -->
    <rect x="90" y="90" width="20" height="20" fill="#FF4D4D"/>
  </g>
</svg>
